<svg xmlns="http://www.w3.org/2000/svg" xmlns:svg="http://www.w3.org/2000/svg" id="svg4654" width="708.507" height="682.645" version="1.1"><metadata id="metadata4660"/><g id="layer1" transform="translate(-158.10916,-6.2940483)"><path style="fill:#000" id="path4825" d="m 804.26004,585.18876 -0.25488,-98.75 -23.70218,-0.5 c -24.78959,-0.52294 -28.25547,-1.16519 -23.65958,-4.38427 2.04824,-1.43464 7.83702,-1.61573 51.65001,-1.61573 32.10119,0 50.01912,0.36172 51.27749,1.03518 1.60495,0.85895 2.6275,3.39158 1.68426,4.17155 -0.1375,0.1137 -11.725,0.4512 -25.75,0.75 l -25.5,0.54327 -0.25488,98.75 -0.25487,98.75 -2.49025,0 -2.49025,0 -0.25487,-98.75 z"/><path style="fill:#000" id="path4823" d="m 170.50516,475.08674 0,-206.98486 -3.38834,-2.09411 c -2.28263,-1.41074 -3.52641,-3.03482 -3.81143,-4.97679 -0.58771,-4.00429 0.22725,-10.09222 1.35099,-10.09222 0.51282,0 1.92609,-0.92529 3.14059,-2.05621 2.18687,-2.03635 2.21096,-2.40078 2.49541,-37.73722 0.15797,-19.62456 0.67518,-36.06897 1.14934,-36.54313 0.47416,-0.47416 1.80741,-0.56209 2.96278,-0.19539 2.08202,0.66081 2.10066,0.98032 2.10066,36.01755 0,19.44295 0.27314,36.06263 0.60699,36.93261 0.33384,0.86999 1.13682,1.58179 1.78439,1.58179 0.64757,0 1.97487,1.35 2.94955,3 l 1.77214,3 123.69347,-0.0136 c 68.0314,-0.008 124.70596,-0.285 125.94346,-0.61664 l 2.25,-0.60297 0,-24.30158 c 0,-13.36587 0.27314,-25.01339 0.60699,-25.88337 0.54318,-1.41556 6.31375,-1.58184 54.89301,-1.58184 48.57926,0 54.34983,0.16628 54.89301,1.58179 0.33385,0.86998 0.60699,12.56998 0.60699,26 0,13.43001 0.1125,24.52653 0.25,24.65892 0.1375,0.13239 59.2,0.46989 131.25,0.75 l 131,0.50929 0.25485,99.25 0.25486,99.25 24.74514,0.0153 c 13.60983,0.008 25.35193,0.39985 26.09354,0.86983 0.74162,0.46998 1.18551,1.70059 0.98643,2.73469 -0.34805,1.80788 -2.38506,1.89012 -52.97946,2.13895 l -52.61751,0.25878 -0.57926,-2.21511 c -0.31859,-1.21831 -0.33544,-2.45976 -0.0374,-2.75878 0.29801,-0.29902 11.53241,-0.67854 24.96533,-0.84339 l 24.42349,-0.29971 -0.25499,-96.20029 -0.25502,-96.20027 -131.5,-0.51294 c -72.325,-0.28212 -131.60503,-0.61962 -131.7334,-0.75 -0.12836,-0.13038 -0.35336,-12.04956 -0.5,-26.48706 l -0.2666,-26.25 -49.25,-0.25942 -49.25,-0.25943 0,25.97424 c 0,24.65652 -0.0981,26.02676 -1.93426,27.00943 -1.30422,0.698 -43.32271,1.03518 -129,1.03518 -125.73241,0 -127.08673,0.021 -129.06574,2 -1.1,1.1 -2.45,2 -3,2 -0.55,0 -1.10878,0.1125 -1.24174,0.25 -0.13295,0.1375 -0.47045,93.85 -0.75,208.25 l -0.50826,208 -2.75,0.31642 -2.75,0.31642 0,-206.98486 z"/><path style="fill:#000" id="path4745" d="m 451.81225,179.50404 c -0.9382,-1.06854 -0.82054,-1.69563 0.55103,-2.93688 1.41593,-1.2814 4.93172,-1.62998 18.69291,-1.85332 l 16.94897,-0.27508 0.28714,-43.5 c 0.15792,-23.925 0.0343,-44.912925 -0.27464,-46.639815 -0.35526,-1.98552 -1.28356,-3.32856 -2.5251,-3.65323 -1.07983,-0.28238 -2.4076,-1.68197 -2.95061,-3.11019 l -0.98729,-2.59677 -120.52475,0 -120.52475,0 0,-2.5 0,-2.5 119.59023,0 119.59023,0 2.63245,-3 c 1.44785,-1.65 3.20725,-3 3.90977,-3 0.70253,0 1.27732,-0.45 1.27732,-1 0,-1.413536 5.59915,-1.243359 8.22546,0.25 1.20907,0.6875 3.32818,2.4875 4.70911,4 l 2.5108,2.75 119.8843,0 c 108.90797,0 119.82873,0.14482 119.27732,1.58179 -0.33385,0.86998 -0.60699,1.99498 -0.60699,2.5 0,0.55249 -47.59611,0.91821 -119.5,0.91821 -118.16667,0 -119.52232,0.0223 -121.5,2 -1.1,1.1 -2,2.34329 -2,2.76287 0,0.41958 -1.0125,1.20708 -2.25,1.75 l -2.25,0.98713 0,46.000005 0,46 17.14679,0.27317 c 17.80262,0.28362 20.19481,0.87009 18.76347,4.60008 -0.56176,1.46392 -4.44207,1.62294 -38.76725,1.58871 -30.8529,-0.0308 -38.37101,-0.29771 -39.33592,-1.39668 z"/><text style="font-size:28px;font-style:normal;font-variant:normal;font-weight:400;font-stretch:normal;text-align:center;line-height:125%;letter-spacing:0;word-spacing:0;text-anchor:middle;fill:#000;fill-opacity:1;stroke:none;font-family:Arial;-inkscape-font-specification:Sans" id="text4873" x="750.823" y="669.175" xml:space="preserve"><tspan id="tspan4875" x="750.823" y="669.175" style="font-size:40px">Terra</tspan></text><text style="font-size:28px;font-style:normal;font-variant:normal;font-weight:400;font-stretch:normal;text-align:center;line-height:125%;letter-spacing:0;word-spacing:0;text-anchor:middle;fill:#000;fill-opacity:1;stroke:none;font-family:Arial;-inkscape-font-specification:Sans" id="text4873-6" x="258.094" y="619.738" xml:space="preserve"><tspan id="tspan4875-9" x="263.641" y="619.738" style="font-size:40px">Linha do </tspan><tspan style="font-size:40px" id="tspan4932" x="258.094" y="669.738">Bit B</tspan></text><text style="font-size:28px;font-style:normal;font-variant:normal;font-weight:400;font-stretch:normal;text-align:center;line-height:125%;letter-spacing:0;word-spacing:0;text-anchor:middle;fill:#000;fill-opacity:1;stroke:none;font-family:Arial;-inkscape-font-specification:Sans" id="text4873-6-4" x="480.081" y="39.927" xml:space="preserve"><tspan id="tspan4875-9-0" x="480.081" y="39.927" style="font-size:40px">Endereço da Linha</tspan></text><text style="font-size:28px;font-style:normal;font-variant:normal;font-weight:400;font-stretch:normal;text-align:center;line-height:125%;letter-spacing:0;word-spacing:0;text-anchor:middle;fill:#000;fill-opacity:1;stroke:none;font-family:Arial;-inkscape-font-specification:Sans" id="text4873-6-3" x="497.996" y="310.288" xml:space="preserve"><tspan id="tspan4875-9-3" x="497.996" y="310.288" style="font-size:40px">Transistor</tspan></text><text style="font-size:28px;font-style:normal;font-variant:normal;font-weight:400;font-stretch:normal;text-align:center;line-height:125%;letter-spacing:0;word-spacing:0;text-anchor:middle;fill:#000;fill-opacity:1;stroke:none;font-family:Arial;-inkscape-font-specification:Sans" id="text4873-6-3-7" x="630.22" y="469.604" xml:space="preserve"><tspan id="tspan4875-9-3-0" x="630.22" y="469.604" style="font-size:40px">Capacitor de</tspan><tspan style="font-size:40px" id="tspan4955" x="630.22" y="519.604">Armazenamento</tspan></text></g></svg>