<svg xmlns="http://www.w3.org/2000/svg" xmlns:svg="http://www.w3.org/2000/svg" xmlns:xlink="http://www.w3.org/1999/xlink" id="svg2" width="1052.362" height="744.094" version="1.1"><defs id="defs4"><marker id="Arrow2Lend" orient="auto" refX="0" refY="0" style="overflow:visible"><path id="path4042" d="M 8.7185878,4.0337352 L -2.2072895,0.016013256 L 8.7185884,-4.0017078 C 6.9730900,-1.6296469 6.9831476,1.6157441 8.7185878,4.0337352 z" transform="scale(1.1) rotate(180) translate(1,0)" style="fill-rule:evenodd;stroke-width:.625;stroke-linejoin:round"/></marker><marker id="Arrow1Lend" orient="auto" refX="0" refY="0" style="overflow:visible"><path id="path4024" d="M 0.0,0.0 L 5.0,-5.0 L -12.5,0.0 L 5.0,5.0 L 0.0,0.0 z" transform="scale(0.8) rotate(180) translate(12.5,0)" style="fill-rule:evenodd;stroke:#000;stroke-width:1pt"/></marker><marker id="Arrow2Lend-8" orient="auto" refX="0" refY="0" style="overflow:visible"><path id="path4042-1" d="M 8.7185878,4.0337352 -2.2072895,0.01601326 8.7185884,-4.0017078 c -1.7454984,2.3720609 -1.7354408,5.6174519 -6e-7,8.035443 z" transform="matrix(-1.1,0,0,-1.1,-1.1,0)" style="fill-rule:evenodd;stroke-width:.625;stroke-linejoin:round"/></marker></defs><metadata id="metadata7"/><g id="layer2" style="display:inline"><path style="fill:none;stroke:#000;stroke-width:4;stroke-linecap:butt;stroke-linejoin:miter;stroke-miterlimit:4;stroke-opacity:1;stroke-dasharray:none;marker-mid:none;marker-end:url(#Arrow2Lend)" id="path3067" d="m 155.71429,597.23734 0,-478.57143"/><path style="fill:none;stroke:#000;stroke-width:4;stroke-linecap:butt;stroke-linejoin:miter;stroke-miterlimit:4;stroke-opacity:1;stroke-dasharray:none;marker-mid:none;marker-end:url(#Arrow2Lend)" id="path3067-6" d="m 104.77254,551.3078 827.14284,0"/><text style="font-size:56.26300812px;font-style:normal;font-variant:normal;font-weight:400;font-stretch:normal;line-height:125%;letter-spacing:0;word-spacing:0;fill:#000;fill-opacity:1;stroke:none;font-family:Arial;-inkscape-font-specification:Arial" id="text4673" x="852.431" y="606.786" xml:space="preserve"><tspan id="tspan4675" x="852.431" y="606.786">t</tspan></text></g><g id="layer3" style="display:inline"><g id="g4784"><path id="path4678" d="m 739.1667,551.88969 0,-387.85721" style="fill:none;stroke:#000;stroke-width:3;stroke-linecap:butt;stroke-linejoin:miter;stroke-miterlimit:4;stroke-opacity:1;stroke-dasharray:3,6;stroke-dashoffset:0"/><use id="use4700" width="1052.362" height="744.094" x="0" y="0" transform="translate(-58,0)" xlink:href="#path4678"/><use id="use4702" width="1052.362" height="744.094" x="0" y="0" transform="translate(-116,0)" xlink:href="#path4678"/><use id="use4704" width="1052.362" height="744.094" x="0" y="0" transform="translate(-174,0)" xlink:href="#path4678"/><use id="use4706" width="1052.362" height="744.094" x="0" y="0" transform="translate(-232,0)" xlink:href="#path4678"/><use id="use4708" width="1052.362" height="744.094" x="0" y="0" transform="translate(-290,0)" xlink:href="#path4678"/><use id="use4710" width="1052.362" height="744.094" x="0" y="0" transform="translate(-348,0)" xlink:href="#path4678"/><use id="use4712" width="1052.362" height="744.094" x="0" y="0" transform="translate(-406,0)" xlink:href="#path4678"/><use id="use4714" width="1052.362" height="744.094" x="0" y="0" transform="translate(-464,0)" xlink:href="#path4678"/><use id="use4716" width="1052.362" height="744.094" x="0" y="0" transform="translate(-522,0)" xlink:href="#path4678"/><use id="use4718" width="1052.362" height="744.094" x="0" y="0" transform="translate(58,0)" xlink:href="#path4678"/><use id="use4716-4" width="1052.362" height="744.094" x="0" y="0" transform="matrix(0,1,-1.7525327,0,1121.4857,-248.0723)" xlink:href="#path4678"/><use id="use4716-4-5" width="1052.362" height="744.094" x="0" y="0" transform="matrix(0,1,-1.7525327,0,1121.4857,-306.0723)" xlink:href="#path4678"/><use id="use4716-4-7" width="1052.362" height="744.094" x="0" y="0" transform="matrix(0,1,-1.7525327,0,1121.4857,-364.0723)" xlink:href="#path4678"/><use id="use4716-4-3" width="1052.362" height="744.094" x="0" y="0" transform="matrix(0,1,-1.7525327,0,1121.4857,-422.0723)" xlink:href="#path4678"/><use id="use4716-4-75" width="1052.362" height="744.094" x="0" y="0" transform="matrix(0,1,-1.7525327,0,1121.4857,-480.0723)" xlink:href="#path4678"/><use id="use4716-4-2" width="1052.362" height="744.094" x="0" y="0" transform="matrix(0,1,-1.7525327,0,1121.4857,-538.0723)" xlink:href="#path4678"/></g></g><g id="layer4" style="display:inline"><path style="fill:none;stroke:#000;stroke-width:5;stroke-linecap:butt;stroke-linejoin:miter;stroke-miterlimit:4;stroke-opacity:1;stroke-dasharray:none" id="path4806" d="m 158.5905,547.58016 c 0,0 19.2793,-254.1609 113.77145,-260.29528 75.62094,-4.90927 41.49667,197.74792 117.21907,194.79051 103.99373,-4.06158 35.61322,-275.79386 139.62859,-279.25719 96.52431,-3.21391 50.06924,245.07552 146.52383,249.95243 38.23985,1.93347 29.74889,-88.37429 67.78902,-92.73008 32.16666,-3.68325 73.56339,63.42531 73.56339,63.42531"/><path style="fill:none;stroke:#666;stroke-width:5;stroke-linecap:butt;stroke-linejoin:miter;stroke-miterlimit:4;stroke-opacity:1;stroke-dasharray:none" id="path4824" d="m 157.49353,552.10237 60.38148,0 0,-234.63542 113.61138,0 0,173.26081 118.87907,0.94194 -2.16737,-232.14235 58.83903,0 0,-59.26548 57.49772,0 0.94194,173.34783 56.71097,0.47097 0.39619,59.30981 116.38563,-1.17743 0,-57.45152 57.99753,0 0,60.34564 -1.49993,0"/><text style="font-size:32px;font-style:normal;font-variant:normal;font-weight:400;font-stretch:normal;line-height:125%;letter-spacing:0;word-spacing:0;fill:#000;fill-opacity:1;stroke:none;font-family:Arial;-inkscape-font-specification:Arial" id="text4828" x="291.795" y="145.02" xml:space="preserve"><tspan id="tspan4830" x="291.795" y="145.02" style="font-weight:700;-inkscape-font-specification:Arial Bold">Sinal Analógico</tspan></text><text style="font-size:32px;font-style:normal;font-variant:normal;font-weight:400;font-stretch:normal;line-height:125%;letter-spacing:0;word-spacing:0;fill:#666;fill-opacity:1;stroke:#666;font-family:Arial;-inkscape-font-specification:Arial" id="text4832" x="571.307" y="143.136" xml:space="preserve"><tspan id="tspan4834" x="571.307" y="143.136" style="font-weight:700;-inkscape-font-specification:Arial Bold;stroke:#666;fill:#666">Sinal Digital</tspan></text><path style="fill:none;stroke:#000;stroke-width:2;stroke-linecap:butt;stroke-linejoin:miter;stroke-miterlimit:4;stroke-opacity:1;stroke-dasharray:none;marker-end:url(#Arrow2Lend-8)" id="path4836" d="m 403.15068,152.55564 81.00691,67.81974"/><path style="fill:#999;stroke:#000;stroke-width:2;stroke-linecap:butt;stroke-linejoin:miter;stroke-miterlimit:4;stroke-opacity:1;stroke-dasharray:none;marker-end:url(#Arrow1Lend)" id="path4838" d="m 646.17141,153.49758 -72.52944,133.7556"/></g></svg>